<?xml version="1.0" encoding="utf-8"?><svg viewBox="0 0 24 24" xmlns="http://www.w3.org/2000/svg" xmlns:xlink="http://www.w3.org/1999/xlink"><style>:root>svg{display:none}:root>svg:target{display:block}</style><svg fill-rule="evenodd" clip-rule="evenodd" viewBox="0 0 24 24" id="arrow" xmlns="http://www.w3.org/2000/svg"><path d="M23.245 4L12 18.374.781 4 0 4.619 12 20 24 4.609 23.245 4z"/></svg><svg viewBox="0 0 24 24" id="basket" xmlns="http://www.w3.org/2000/svg"><path d="M7.441 7H4.559L9.26 2.298a1.02 1.02 0 011.441 1.442L7.441 7zm9.118 0h2.883L14.74 2.298a1.02 1.02 0 00-1.441 1.442L16.559 7zM0 9v2h.643c.577 0 1.061.299 1.343 1h20.03c.28-.699.766-1 1.343-1H24V9H0zm21.213 5H2.788l1.204 3h16.016l1.205-3zM4.796 19L6 22h12l1.205-3H4.796z"/></svg><svg viewBox="0 0 24 24" id="battery" xmlns="http://www.w3.org/2000/svg"><path d="M19 8v8H2V8h17zm2-2H0v12h21V6zm1 9h.75c.69 0 1.25-.56 1.25-1.25v-3.5C24 9.56 23.44 9 22.75 9H22v6zM6 9H3v6h3V9z"/></svg><svg viewBox="0 0 24 24" id="cancel" xmlns="http://www.w3.org/2000/svg"><path d="M23.954 21.03l-9.184-9.095 9.092-9.174L21.03-.046l-9.09 9.179L2.764.045l-2.81 2.81L9.14 11.96.045 21.144l2.81 2.81 9.112-9.192 9.18 9.1z"/></svg><svg viewBox="0 0 24 24" id="check-mark" xmlns="http://www.w3.org/2000/svg"><path d="M9 21.035l-9-8.638 2.791-2.87 6.156 5.874 12.21-12.436L24 5.782z"/></svg><svg viewBox="0 0 24 24" id="eye" xmlns="http://www.w3.org/2000/svg"><path d="M12.015 7c4.751 0 8.063 3.012 9.504 4.636C20.118 13.473 16.806 17 12.015 17c-4.42 0-7.93-3.536-9.478-5.407C4.03 9.946 7.354 7 12.015 7zm0-2C4.446 5 0 11.551 0 11.551S4.835 19 12.015 19C19.748 19 24 11.551 24 11.551S19.709 5 12.015 5zM12 10c1.103 0 2 .897 2 2s-.897 2-2 2-2-.897-2-2 .897-2 2-2zm0-2a4 4 0 10.002 8.002A4 4 0 0012 8z"/></svg><svg viewBox="0 0 24 24" id="facebook" xmlns="http://www.w3.org/2000/svg"><path d="M22.675 0H1.325C.593 0 0 .593 0 1.325v21.351C0 23.407.593 24 1.325 24H12.82v-9.294H9.692v-3.622h3.128V8.413c0-3.1 1.893-4.788 4.659-4.788 1.325 0 2.463.099 2.795.143v3.24l-1.918.001c-1.504 0-1.795.715-1.795 1.763v2.313h3.587l-.467 3.622h-3.12V24h6.116c.73 0 1.323-.593 1.323-1.325V1.325C24 .593 23.407 0 22.675 0z"/></svg><svg viewBox="0 0 24 24" id="heart" xmlns="http://www.w3.org/2000/svg"><path d="M6.28 3c3.236.001 4.973 3.491 5.72 5.031.75-1.547 2.469-5.021 5.726-5.021C19.784 3.01 22 4.319 22 7.192c0 3.442-4.744 7.851-10 13-5.258-5.151-10-9.559-10-13C2 4.516 3.965 2.999 6.28 3zm.001-2C3.098 1 0 3.187 0 7.192 0 11.853 5.57 16.619 12 23c6.43-6.381 12-11.147 12-15.808 0-4.011-3.097-6.182-6.274-6.182-2.204 0-4.446 1.042-5.726 3.238C10.715 2.042 8.478 1 6.281 1z"/></svg><svg fill-rule="evenodd" clip-rule="evenodd" viewBox="0 0 24 24" id="hot" xmlns="http://www.w3.org/2000/svg"><path d="M7.467 0c1.102.018 5.555 2.549 6.386 8.558.905-.889 1.409-3.664 1.147-4.843 3.952 2.969 6 6.781 6 11.034C21 19.843 17.57 24 12.037 24 6.309 24 3 20.247 3 15.724 3 9.464 8.052 8.104 7.467 0zm3.262 19.743c-.749.848-.368 1.945.763 2.045 1.035.093 1.759-.812 2.032-1.792.273-.978.09-2.02-.369-2.893-.998 1.515-1.52 1.64-2.426 2.64zm4.42 1.608c2.49-1.146 3.852-3.683 3.852-6.58 0-2.358-.94-4.977-2.5-7.04C15.758 10.598 13.577 11.709 12 12c.05-3.219-.318-6.153-2.602-8.438C9.102 8.294 5.077 11.192 5 15.676c-.029 1.511.514 3.203 1.73 4.415a5.952 5.952 0 001.664 1.16 3.12 3.12 0 01.195-1.848c.911-2.106 3.333-2.321 4.202-5.754.952.749 3.275 3.503 2.778 6.358a5.39 5.39 0 01-.42 1.344z"/></svg><svg viewBox="0 0 24 24" id="instagram" xmlns="http://www.w3.org/2000/svg"><path d="M15.233 5.488c-.843-.038-1.097-.046-3.233-.046s-2.389.008-3.232.046c-2.17.099-3.181 1.127-3.279 3.279-.039.844-.048 1.097-.048 3.233s.009 2.389.047 3.233c.099 2.148 1.106 3.18 3.279 3.279.843.038 1.097.047 3.233.047 2.137 0 2.39-.008 3.233-.046 2.17-.099 3.18-1.129 3.279-3.279.038-.844.046-1.097.046-3.233s-.008-2.389-.046-3.232c-.099-2.153-1.111-3.182-3.279-3.281zM12 16.108a4.108 4.108 0 110-8.215 4.108 4.108 0 010 8.215zm4.271-7.418a.96.96 0 110-1.92.96.96 0 010 1.92zM14.667 12a2.667 2.667 0 11-5.334 0 2.667 2.667 0 015.334 0zM19 0H5a5 5 0 00-5 5v14a5 5 0 005 5h14a5 5 0 005-5V5a5 5 0 00-5-5zm.952 15.298c-.132 2.909-1.751 4.521-4.653 4.654-.854.039-1.126.048-3.299.048s-2.444-.009-3.298-.048c-2.908-.133-4.52-1.748-4.654-4.654C4.009 14.445 4 14.173 4 12c0-2.172.009-2.445.048-3.298.134-2.908 1.748-4.521 4.654-4.653C9.556 4.009 9.827 4 12 4s2.445.009 3.299.048c2.908.133 4.523 1.751 4.653 4.653.039.854.048 1.127.048 3.299 0 2.173-.009 2.445-.048 3.298z"/></svg><svg fill-rule="evenodd" clip-rule="evenodd" viewBox="0 0 24 24" id="lightning" xmlns="http://www.w3.org/2000/svg"><path d="M13 9h9L8 24l3-9H2L16 0l-3 9zm-8.699 5h8.086L10.4 19.963 19.699 10h-8.086L13.6 4.037 4.301 14z"/></svg><svg fill-rule="evenodd" clip-rule="evenodd" viewBox="0 0 24 24" id="long-arrow" xmlns="http://www.w3.org/2000/svg"><path d="M21.883 12l-7.527 6.235L15 19l9-7.521L15 4l-.645.764L21.884 11H0v1h21.883z"/></svg><svg viewBox="0 0 24 24" id="mastercard" xmlns="http://www.w3.org/2000/svg"><path d="M15.465 16.444c0 .193-.128.339-.319.339-.199 0-.321-.153-.321-.339 0-.186.122-.339.321-.339.19.001.319.147.319.339zm-6.814-.338c-.199 0-.321.153-.321.339 0 .186.122.339.321.339.19 0 .319-.146.319-.339 0-.193-.128-.339-.319-.339zm3.391-.011c-.164 0-.257.104-.281.257h.549c-.024-.164-.119-.257-.268-.257zm5.24.011c-.199 0-.321.153-.321.339 0 .186.122.339.321.339.19 0 .319-.146.319-.339 0-.193-.129-.339-.319-.339zM24 6v12a2 2 0 01-2 2H2a2 2 0 01-2-2V6a2 2 0 012-2h20a2 2 0 012 2zM5.544 10.985a3.985 3.985 0 006.081 3.389 4.418 4.418 0 010-6.778 3.985 3.985 0 00-6.081 3.389zm2.346 5.324c0-.25-.159-.418-.416-.421a.412.412 0 00-.372.188.389.389 0 00-.35-.188.35.35 0 00-.31.157v-.131h-.23v1.058h.232v-.587c0-.184.102-.281.259-.281.153 0 .23.1.23.279v.589h.232v-.587c0-.184.106-.281.259-.281.157 0 .232.1.232.279v.589h.234v-.663zm1.297-.394h-.23v.128a.402.402 0 00-.334-.155c-.297 0-.529.232-.529.556 0 .324.232.556.529.556a.4.4 0 00.334-.155v.128h.23v-1.058zm1.164.74c0-.186-.139-.283-.37-.317l-.108-.016c-.1-.013-.179-.033-.179-.104 0-.078.075-.124.201-.124a.68.68 0 01.33.091l.1-.186a.792.792 0 00-.432-.111c-.268 0-.44.128-.44.339 0 .173.128.279.365.312l.108.016c.126.018.186.051.186.111 0 .082-.084.128-.241.128a.564.564 0 01-.352-.111l-.108.179a.755.755 0 00.458.138c.305 0 .482-.144.482-.345zm1.025.263l-.066-.197a.425.425 0 01-.204.06c-.115 0-.153-.071-.153-.177v-.478h.376v-.21h-.376v-.321h-.232v.321h-.215v.21h.215v.483c0 .246.095.392.367.392a.55.55 0 00.288-.083zm1.173-.474c-.002-.33-.206-.556-.503-.556-.31 0-.527.226-.527.556 0 .336.226.556.542.556.159 0 .305-.04.434-.148l-.113-.17a.504.504 0 01-.308.111c-.148 0-.283-.069-.317-.259h.786l.006-.09zm.908-.526l-.164-.029a.312.312 0 00-.279.155v-.128h-.228v1.058h.23v-.594c0-.175.075-.272.226-.272l.144.027.071-.217zm.308.526c0-.204.135-.336.319-.339.1 0 .19.033.277.095l.111-.186a.552.552 0 00-.381-.126c-.341 0-.564.235-.564.556s.222.556.563.556a.554.554 0 00.381-.126l-.111-.186a.464.464 0 01-.277.095c-.183-.002-.318-.135-.318-.339zm1.916-.529h-.23v.128a.402.402 0 00-.334-.155c-.297 0-.529.232-.529.556 0 .323.232.556.529.556a.4.4 0 00.334-.155v.128h.23v-1.058zm.974.003l-.164-.029a.312.312 0 00-.279.155v-.128h-.228v1.058h.23v-.594c0-.175.075-.272.226-.272l.144.027.071-.217zm1.162-.428h-.23v.553a.402.402 0 00-.334-.155c-.297 0-.529.232-.529.556 0 .323.232.556.529.556a.4.4 0 00.334-.155v.128h.23V15.49zm.639-4.505a3.985 3.985 0 10-7.97 0 3.985 3.985 0 007.97 0z"/></svg><svg viewBox="0 0 24 24" id="medal" xmlns="http://www.w3.org/2000/svg"><path d="M12 10a7 7 0 10.001 14.001A7 7 0 0012 10zm0 13a6 6 0 110-12 6 6 0 010 12zM8 0l5.958 8H10L4 0h4zm6.604 7.194L20 0h-4l-3.376 4.534 1.98 2.66zM12 12a5 5 0 10.001 10.001A5 5 0 0012 12zm1 8h-1v-4h-2v-.859c.438 0 1.766-.047 2.172-1.141H13v6z"/></svg><svg viewBox="0 0 24 24" id="paypal" xmlns="http://www.w3.org/2000/svg"><path d="M22 4H2a2 2 0 00-2 2v12a2 2 0 002 2h20a2 2 0 002-2V6a2 2 0 00-2-2zM10.708 15.11h-1.33a.212.212 0 01-.212-.224c.024-.383.246-1.641 1.014-6.586a.35.35 0 01.346-.3h2.448c1.31 0 2.277.769 2.01 2.147-.275 1.433-1.15 2.13-2.674 2.13l-.753.001c-.309.001-.423.118-.462.393l-.387 2.439zm5.069-3.314c-.282 1.473-1.249 1.982-2.483 1.982h-.191a.308.308 0 00-.303.263l-.268 1.697a.306.306 0 01-.302.262h-.912a.211.211 0 01-.209-.244l.462-2.96.021-.019h.718c1.745 0 2.836-.873 3.158-2.523.271.272.366.626.366 1a2.961 2.961 0 01-.057.542z"/></svg><svg viewBox="0 0 24 24" id="pinterest" xmlns="http://www.w3.org/2000/svg"><path d="M19 0H5a5 5 0 00-5 5v14a5 5 0 005 5h14a5 5 0 005-5V5a5 5 0 00-5-5zm-7 20c-.825 0-1.62-.125-2.369-.357.326-.531.813-1.402.994-2.098l.499-1.901c.261.498 1.023.918 1.833.918 2.414 0 4.152-2.219 4.152-4.976 0-2.643-2.157-4.62-4.933-4.62-3.452 0-5.286 2.317-5.286 4.841 0 1.174.625 2.634 1.624 3.1.151.07.232.039.268-.107l.222-.907a.24.24 0 00-.056-.23c-.331-.4-.595-1.138-.595-1.825 0-1.765 1.336-3.472 3.612-3.472 1.965 0 3.341 1.339 3.341 3.255 0 2.164-1.093 3.663-2.515 3.663-.786 0-1.374-.649-1.185-1.446.226-.951.663-1.977.663-2.664 0-.614-.33-1.127-1.012-1.127-.803 0-1.448.831-1.448 1.943 0 .709.239 1.188.239 1.188s-.793 3.353-.938 3.977c-.161.691-.098 1.662-.028 2.294A8 8 0 1112 20z"/></svg><svg viewBox="0 0 24 24" id="search" xmlns="http://www.w3.org/2000/svg"><path d="M23.809 21.646l-6.205-6.205a9.68 9.68 0 001.857-5.711C19.461 4.365 15.096 0 9.73 0 4.365 0 0 4.365 0 9.73c0 5.366 4.365 9.73 9.73 9.73a9.678 9.678 0 005.487-1.698L21.455 24l2.354-2.354zM2.854 9.73c0-3.792 3.085-6.877 6.877-6.877s6.877 3.085 6.877 6.877-3.085 6.877-6.877 6.877A6.884 6.884 0 012.854 9.73z"/></svg><svg viewBox="0 0 24 24" id="star" xmlns="http://www.w3.org/2000/svg"><path d="M12 6.76l1.379 4.246h4.465l-3.612 2.625 1.379 4.246L12 15.252l-3.612 2.625 1.379-4.246-3.612-2.625h4.465L12 6.76zm0-6.472L9.167 9.006H0l7.416 5.389-2.833 8.718L12 17.725l7.416 5.388-2.833-8.718L24 9.006h-9.167L12 .288z"/></svg><svg viewBox="0 0 24 24" id="twitter" xmlns="http://www.w3.org/2000/svg"><path d="M24 4.557a9.83 9.83 0 01-2.828.775 4.932 4.932 0 002.165-2.724 9.864 9.864 0 01-3.127 1.195 4.916 4.916 0 00-3.594-1.555c-3.179 0-5.515 2.966-4.797 6.045A13.978 13.978 0 011.671 3.149a4.93 4.93 0 001.523 6.574 4.903 4.903 0 01-2.229-.616c-.054 2.281 1.581 4.415 3.949 4.89a4.935 4.935 0 01-2.224.084 4.928 4.928 0 004.6 3.419A9.9 9.9 0 010 19.54a13.94 13.94 0 007.548 2.212c9.142 0 14.307-7.721 13.995-14.646A10.025 10.025 0 0024 4.557z"/></svg><svg viewBox="0 0 24 24" id="user" xmlns="http://www.w3.org/2000/svg"><path d="M12 2c3.032 0 5.5 2.467 5.5 5.5 0 1.458-.483 3.196-3.248 5.59 4.111 1.961 6.602 5.253 7.482 8.909H2.248c.955-4.188 4.005-7.399 7.519-8.889C8.166 11.823 6.5 9.787 6.5 7.5 6.5 4.467 8.968 2 12 2zm0-2a7.5 7.5 0 00-7.5 7.5c0 2.012.797 3.834 2.086 5.182C1.556 15.691 0 21.183 0 24h24c0-2.791-1.657-8.28-6.59-11.314A7.47 7.47 0 0019.5 7.5 7.5 7.5 0 0012 0z"/></svg><svg viewBox="0 0 24 24" id="visa" xmlns="http://www.w3.org/2000/svg"><path d="M19.662 11.156l.375 1.716h-1.344l.645-1.661.215-.567.109.512zM24 6v12a2 2 0 01-2 2H2a2 2 0 01-2-2V6a2 2 0 012-2h20a2 2 0 012 2zM6.854 14.971l2.549-5.929H7.688l-1.585 4.051-.169-.823-.568-2.73c-.098-.377-.383-.489-.734-.502H2.021L2 9.161a6.849 6.849 0 011.701.651l1.44 5.16 1.713-.001zm4.823-5.934h-1.619l-1.012 5.941h1.619l1.012-5.941zm4.625 3.999c.006-.676-.425-1.19-1.359-1.614-.566-.275-.913-.458-.909-.736 0-.247.293-.511.927-.511.53-.008.913.107 1.212.228l.145.068.219-1.287a4.168 4.168 0 00-1.451-.25c-1.6 0-2.727.806-2.737 1.961-.009.854.805 1.33 1.419 1.614.63.291.842.477.839.737-.004.398-.503.58-.969.58-.648 0-.992-.09-1.524-.312l-.209-.095-.227 1.33c.378.166 1.078.31 1.804.317 1.702 0 2.807-.797 2.82-2.03zM22 14.98l-1.311-5.937h-1.251c-.388 0-.678.106-.848.493l-2.405 5.444h1.7l.341-.893 2.074.003.197.89H22z"/></svg></svg>